<?xml version="1.0" encoding="UTF-8"?>
<svg xmlns="http://www.w3.org/2000/svg" width="512" height="512" viewBox="0 0 512 512">
  <defs>
    <linearGradient id="neon" x1="0%" y1="0%" x2="100%" y2="100%">
      <stop offset="0%" stop-color="#00e6ff"/>
      <stop offset="50%" stop-color="#7a5cff"/>
      <stop offset="100%" stop-color="#ffd166"/>
    </linearGradient>
    <radialGradient id="glow" cx="50%" cy="45%" r="60%">
      <stop offset="0%" stop-color="#00e6ff" stop-opacity="0.25"/>
      <stop offset="60%" stop-color="#7a5cff" stop-opacity="0.12"/>
      <stop offset="100%" stop-color="#000000" stop-opacity="0"/>
    </radialGradient>
    <filter id="softGlow" x="-50%" y="-50%" width="200%" height="200%">
      <feGaussianBlur stdDeviation="6" result="blur"/>
      <feMerge>
        <feMergeNode in="blur"/>
        <feMergeNode in="SourceGraphic"/>
      </feMerge>
    </filter>
  </defs>

  <!-- Background glow -->
  <rect x="0" y="0" width="512" height="512" fill="url(#glow)"/>

  <!-- Briefcase outline (AI-styled) -->
  <g filter="url(#softGlow)">
    <path d="M160 192h192c17.7 0 32 14.3 32 32v144c0 17.7-14.3 32-32 32H160c-17.7 0-32-14.3-32-32V224c0-17.7 14.3-32 32-32z" fill="none" stroke="url(#neon)" stroke-width="18" stroke-linejoin="round"/>
    <path d="M208 192v-16c0-17.7 14.3-32 32-32h32c17.7 0 32 14.3 32 32v16" fill="none" stroke="url(#neon)" stroke-width="18" stroke-linecap="round"/>
    <path d="M128 240h256" fill="none" stroke="url(#neon)" stroke-width="14" stroke-linecap="round" opacity="0.6"/>
  </g>

  <!-- Coin badge with AI sparkle -->
  <g filter="url(#softGlow)">
    <circle cx="384" cy="176" r="44" fill="none" stroke="url(#neon)" stroke-width="12"/>
    <path d="M384 152l10 14 18-6-10 14 10 14-18-6-10 14-2-18-18-6 18-6z" fill="url(#neon)" opacity="0.9"/>
  </g>

  <!-- Subtle foreground accent -->
  <path d="M160 320h192" stroke="url(#neon)" stroke-width="10" stroke-linecap="round" opacity="0.5"/>
</svg>