<?xml version="1.0" encoding="UTF-8"?>
<svg xmlns="http://www.w3.org/2000/svg" viewBox="0 0 64 64" width="64" height="64">
  <defs>
    <linearGradient id="gradSettings" x1="0%" y1="0%" x2="100%" y2="0%">
      <stop offset="0%" stop-color="#FF7CF7"/>
      <stop offset="100%" stop-color="#4FD1FF"/>
    </linearGradient>
    <filter id="softGlow" x="-50%" y="-50%" width="200%" height="200%">
      <feGaussianBlur stdDeviation="2" result="blur"/>
      <feMerge>
        <feMergeNode in="blur"/>
        <feMergeNode in="SourceGraphic"/>
      </feMerge>
    </filter>
  </defs>
  <g stroke="url(#gradSettings)" stroke-width="3" fill="none" filter="url(#softGlow)" stroke-linecap="round" stroke-linejoin="round">
    <circle cx="32" cy="32" r="8"/>
    <path d="M32 14 l3 0 a3 3 0 0 0 2 -1 l3 -5 a3 3 0 0 1 4 0 l3 5 a3 3 0 0 0 2 1 l3 0 a3 3 0 0 1 3 3 l0 6 a3 3 0 0 0 1 2 l5 3 a3 3 0 0 1 0 4 l-5 3 a3 3 0 0 0 -1 2 l0 6 a3 3 0 0 1 -3 3 l-3 0 a3 3 0 0 0 -2 1 l-3 5 a3 3 0 0 1 -4 0 l-3 -5 a3 3 0 0 0 -2 -1 l-3 0 a3 3 0 0 1 -3 -3 l0 -6 a3 3 0 0 0 -1 -2 l-5 -3 a3 3 0 0 1 0 -4 l5 -3 a3 3 0 0 0 1 -2 l0 -6 a3 3 0 0 1 3 -3 z"/>
  </g>
</svg>